<svg xmlns="http://www.w3.org/2000/svg" viewBox="0 0 64 64" role="img" aria-label="Learn Japanese">
  <defs>
    <linearGradient id="bg" x1="12" y1="8" x2="52" y2="56" gradientUnits="userSpaceOnUse">
      <stop offset="0" stop-color="#1b8a7a"/>
      <stop offset="1" stop-color="#11534d"/>
    </linearGradient>
  </defs>
  <rect width="64" height="64" rx="18" fill="url(#bg)"/>
  <path d="M18 22c0-3.3 2.7-6 6-6h16c3.3 0 6 2.7 6 6v9c0 3.3-2.7 6-6 6H31l-8 7v-7h1c-3.3 0-6-2.7-6-6z" fill="#f7f4ea"/>
  <circle cx="25.5" cy="28" r="5.3" fill="#11534d"/>
  <path d="M19.5 39.5c1.1-4.2 4.3-6.7 6-6.7s4.9 2.5 6 6.7" fill="none" stroke="#11534d" stroke-width="3.2" stroke-linecap="round"/>
  <path d="M38.5 29h6" fill="none" stroke="#11534d" stroke-width="3.2" stroke-linecap="round"/>
  <path d="M38.5 34h9" fill="none" stroke="#11534d" stroke-width="3.2" stroke-linecap="round"/>
  <path d="M38.5 39h4.5" fill="none" stroke="#11534d" stroke-width="3.2" stroke-linecap="round"/>
</svg>
